<svg width="171" height="43" viewBox="0 0 171 43" fill="none" xmlns="http://www.w3.org/2000/svg">
<g clip-path="url(#clip0_4322_69522)">
<path d="M1.50329 8.25313C1.41994 8.33843 0.726929 9.15651 0.660437 9.2574C0.647559 9.27691 0.628459 9.29172 0.606105 9.29952C0.583751 9.30731 0.559394 9.30766 0.536818 9.3005C0.360598 9.25393 0.208886 9.14381 0.112132 8.99224C0.0153794 8.84067 -0.0192535 8.65887 0.0151853 8.48333C0.05323 8.3126 0.121365 8.14966 0.216534 8.00184C0.459959 7.62982 0.766927 7.30159 1.12401 7.03151C2.52132 5.96059 4.04463 5.0575 5.66137 4.34154C7.85092 3.35929 10.1304 2.62833 12.4632 2.05329C13.8636 1.70647 15.2849 1.4464 16.7187 1.27464C17.3349 1.20127 17.9567 1.17009 18.5748 1.11781C18.6249 1.11081 18.6744 1.10008 18.7228 1.08571L19.442 1.08571C19.5137 1.10095 19.5862 1.11167 19.6593 1.11781C20.2802 1.13982 20.9011 1.15358 21.522 1.18109C21.8829 1.20383 22.2312 1.31963 22.5316 1.51676C22.8518 1.7167 22.9183 2.00743 22.731 2.33393C22.6797 2.41683 22.6231 2.49647 22.5615 2.57239C22.5484 2.58952 22.5293 2.60127 22.5078 2.60534C22.4863 2.60941 22.4641 2.60551 22.4454 2.5944C22.1069 2.39218 21.7244 2.2712 21.3291 2.2413C20.9201 2.2062 20.5081 2.24159 20.1116 2.34585C20.3523 2.36328 20.5939 2.37887 20.8346 2.39813C21.0435 2.41464 21.2514 2.4394 21.4602 2.45133C21.7824 2.46967 22.0361 2.63475 22.303 2.80351C22.3203 2.81446 22.3329 2.83124 22.3385 2.85068C22.344 2.87011 22.342 2.89085 22.333 2.90898C22.2038 3.16302 22.0708 3.40423 21.8357 3.58857C20.8488 4.34316 19.7948 5.00953 18.6863 5.57968C17.0418 6.45096 15.3954 7.31918 13.7471 8.18435C12.9043 8.63099 12.0024 8.9419 11.0107 8.98959C10.742 8.99816 10.473 8.98281 10.2072 8.94374C9.74742 8.89199 9.28201 8.91836 8.83144 9.02169C7.84772 9.21323 6.85467 9.35557 5.85616 9.44816C5.17158 9.5197 4.48699 9.59307 3.79585 9.64626C3.43062 9.67378 3.06257 9.66827 2.69546 9.66461C2.25437 9.6591 1.81327 9.64076 1.37218 9.62333C1.2824 9.61816 1.19366 9.60182 1.10809 9.57473C0.926404 9.51786 0.827134 9.40139 0.891753 9.22071C0.931906 9.11127 0.989082 9.00856 1.06126 8.91622C1.19893 8.7117 1.82077 8.10822 2.24781 7.72394C1.96755 7.85705 1.71383 8.03813 1.49861 8.25863L1.50329 8.25313ZM10.0067 7.72303C10.7232 7.41945 11.4405 7.13514 12.2057 6.98932C12.97 6.8488 13.7551 6.85752 14.516 7.015C14.4152 6.92834 14.2986 6.86112 14.1723 6.8169C14.0158 6.76811 13.8544 6.73552 13.691 6.71968C12.9127 6.64172 12.1551 6.75636 11.4087 6.96822C11.0182 7.07091 10.6457 7.23043 10.3036 7.44147C10.1836 7.50731 10.0829 7.6024 10.0114 7.71752L10.0067 7.72303Z" fill="black"/>
<path d="M18.3639 25.8282C18.2421 25.7668 18.1766 25.7879 18.1541 25.8915C18.1223 26.0272 18.0867 26.1621 18.0605 26.2987C18.013 26.58 17.9699 26.8624 17.9312 27.1461C17.9186 27.2328 17.9186 27.3208 17.9312 27.4075C17.9385 27.4851 17.9716 27.5583 18.0254 27.6158C18.0792 27.6732 18.1507 27.7119 18.229 27.7258C18.3307 27.7508 18.4352 27.7628 18.54 27.7615C19.2967 27.7294 20.0515 27.6698 20.7819 27.4644C21.0752 27.3786 21.3601 27.2675 21.6332 27.1324C22.0359 26.938 22.4227 26.7142 22.817 26.5032C22.8741 26.472 22.9331 26.4436 22.9902 26.4115C23.0997 26.5771 23.1478 26.7746 23.1263 26.9708C23.1048 27.167 23.0151 27.35 22.8722 27.4892C22.5364 27.8366 22.1304 28.1118 21.6801 28.2971C21.0969 28.5238 20.4803 28.6569 19.8539 28.6915C19.5729 28.7126 19.2854 28.7218 19.0017 28.742C18.8971 28.75 18.7937 28.7678 18.6926 28.7952C18.6739 28.8043 18.6574 28.8172 18.6442 28.833C18.631 28.8488 18.6213 28.8671 18.6158 28.8869C18.6111 28.9015 18.658 28.9501 18.6861 28.9547C18.8405 28.9849 18.997 29.0036 19.1543 29.0107C19.4353 29.0153 19.7237 29.0052 20.0084 28.9923C20.0829 28.9834 20.1581 29.0022 20.2192 29.045C20.2802 29.0878 20.3226 29.1515 20.338 29.2235C20.4384 29.5159 20.4819 29.8242 20.4663 30.1323C20.4448 30.5836 20.4869 30.6294 20.9524 30.6716C21.0798 30.6826 21.2062 30.6991 21.3326 30.7065C21.5412 30.7187 21.7366 30.8106 21.8767 30.9623C21.7863 31.0941 21.6601 31.1986 21.5124 31.2641C21.4284 31.2925 21.337 31.2925 21.253 31.2641C21.0257 31.1924 20.7906 31.1469 20.5525 31.1283C20.4926 31.1228 20.4326 31.1164 20.3727 31.1146C20.2332 31.11 20.0983 31.1283 20.0168 31.2558C19.9353 31.3833 19.9897 31.5099 20.0627 31.6227C20.1095 31.697 20.1564 31.7703 20.2069 31.8446C20.2398 31.8907 20.2592 31.9447 20.2632 32.0007C20.2671 32.0568 20.2555 32.1128 20.2294 32.1629C20.0893 32.094 19.9535 32.0168 19.823 31.9318C19.5298 31.7171 19.4072 31.7153 19.1496 31.9785C19.013 32.126 18.839 32.2354 18.6453 32.2958C18.4515 32.3562 18.2449 32.3654 18.0464 32.3225C18.1344 32.0675 18.2009 31.819 18.303 31.5888C18.6495 30.8018 18.5952 30.0425 18.1363 29.3207C17.3337 28.0596 16.1903 27.291 14.6713 27.1076C14.2798 27.0599 13.8808 27.0719 13.4847 27.0599C13.3911 27.0599 13.2974 27.0682 13.2974 27.2076C13.4455 27.268 13.6054 27.2956 13.7657 27.2883C14.5445 27.2853 15.3143 27.4513 16.0198 27.7744C16.8046 28.1486 17.4658 28.6594 17.8863 29.4252C18.112 29.8379 18.2787 30.2708 18.2234 30.7487C18.1901 30.9871 18.1375 31.2227 18.0661 31.453C17.9247 31.9464 17.7702 32.4362 17.625 32.9287C17.5974 33.02 17.5786 33.1137 17.5688 33.2084C17.5507 33.3407 17.579 33.4751 17.6491 33.5896C17.7192 33.7041 17.8269 33.7918 17.9546 33.8385C17.9958 33.8559 18.0384 33.8698 18.082 33.8798C18.549 33.9742 18.9645 34.2329 19.2498 34.607C19.3051 34.6767 19.3613 34.7483 19.483 34.7098C19.4913 34.6452 19.4845 34.5795 19.4631 34.5179C19.4417 34.4562 19.4062 34.4002 19.3594 34.3539C19.2892 34.2686 19.2039 34.1953 19.1309 34.1118C19.0578 34.0283 18.9979 33.9412 18.9277 33.8513C18.9857 33.7835 19.0269 33.733 19.07 33.6844C19.3191 33.4047 19.335 33.2864 19.1637 32.9507C19.0925 32.814 19.0148 32.6811 18.9192 32.5105C18.9773 32.4683 19.0401 32.4279 19.0962 32.3802C19.2189 32.2748 19.3388 32.1647 19.4708 32.0519C19.6038 32.1436 19.7246 32.2271 19.8454 32.3069C19.9309 32.3612 20.0296 32.3922 20.1314 32.3966C20.2332 32.4009 20.3343 32.3785 20.4242 32.3316C20.5544 32.2739 20.5918 32.2243 20.5534 32.0895C20.4993 31.9156 20.434 31.7453 20.3577 31.5796C20.3184 31.4879 20.2594 31.4062 20.1854 31.2778C20.4944 31.3549 20.752 31.4246 21.0123 31.4814C21.1714 31.5209 21.3344 31.5434 21.4984 31.5484C21.6681 31.5389 21.8293 31.4727 21.9552 31.3609C22.0812 31.2491 22.1642 31.0984 22.1904 30.9339C22.2009 30.8906 22.2021 30.8455 22.194 30.8017C22.1858 30.7578 22.1685 30.7161 22.1431 30.6792C22.1176 30.6422 22.0847 30.6108 22.0463 30.5869C22.0078 30.5631 21.9648 30.5472 21.9198 30.5405C21.6969 30.4808 21.4675 30.4488 21.2399 30.4011C21.0872 30.3717 20.9337 30.3451 20.7716 30.3158C20.7276 29.8407 20.6855 29.3821 20.6415 28.907C20.7791 28.8621 20.9037 28.8153 21.0301 28.7805C21.2877 28.7044 21.5499 28.6411 21.8037 28.5539C21.991 28.4888 22.1249 28.5622 22.242 28.6878C22.4818 28.9429 22.6476 29.256 22.7224 29.5949C22.8891 30.3589 22.6962 31.0275 22.0949 31.5466C21.7765 31.8217 21.4094 32.0418 21.0648 32.2867C20.9833 32.3445 20.899 32.3986 20.8157 32.4536L20.8325 32.4995C20.9177 32.493 21.0039 32.4811 21.0891 32.483C21.2532 32.4778 21.4174 32.487 21.5798 32.5105C21.9123 32.5774 22.0921 32.7975 22.1174 33.1268C22.1226 33.1633 22.1226 33.2003 22.1174 33.2368C22.0434 33.534 22.0884 33.8321 22.1005 34.1311C22.1112 34.3441 22.0771 34.557 22.0003 34.7565C21.8899 35.0454 21.8439 35.354 21.8655 35.6618C21.8692 35.757 21.8655 35.8523 21.8542 35.947C21.8499 36.0683 21.813 36.1863 21.7472 36.2892C21.6815 36.3921 21.5892 36.4762 21.4796 36.533C21.434 36.5505 21.3972 36.5847 21.3771 36.6285C21.357 36.6722 21.3551 36.7219 21.3719 36.7669C21.4103 36.9503 21.4572 37.1237 21.4871 37.3043C21.5098 37.4414 21.5217 37.58 21.5227 37.7189C21.5253 37.8007 21.4993 37.8808 21.4491 37.9462C21.3989 38.0116 21.3274 38.0582 21.2465 38.0784C21.1832 38.1015 21.1176 38.1178 21.0507 38.127C20.5731 38.1765 20.0917 38.2123 19.6216 38.0903C19.3924 38.0255 19.1722 37.933 18.9661 37.8152C18.819 37.7333 18.693 37.6198 18.5974 37.4831C18.5018 37.3465 18.4393 37.1903 18.4145 37.0265C18.3731 36.8714 18.3101 36.7226 18.2272 36.5844C18.1551 36.4487 18.0558 36.3258 17.9846 36.1891C17.9234 36.0881 17.8862 35.9749 17.8757 35.8579C17.8651 35.7409 17.8815 35.6231 17.9237 35.5132C18.0118 35.2921 17.9368 35.1601 17.6924 35.117C17.3609 35.0583 17.0256 35.0253 16.6922 34.9776C16.4928 34.9491 16.2914 34.9271 16.0938 34.8859C15.9772 34.8595 15.865 34.8172 15.7604 34.7602C15.649 34.7059 15.556 34.6213 15.4924 34.5165C15.4288 34.4118 15.3973 34.2914 15.4017 34.1696C15.4046 33.9414 15.4603 33.7169 15.5647 33.5129C15.6583 33.3075 15.7782 33.1103 15.8784 32.9048C15.9321 32.8008 15.9739 32.6913 16.003 32.5783C16.0138 32.5465 16.018 32.5128 16.015 32.4794C16.0121 32.446 16.0022 32.4135 15.986 32.3839C15.9698 32.3543 15.9475 32.3284 15.9207 32.3075C15.8938 32.2867 15.8628 32.2715 15.8297 32.2628C15.7165 32.2267 15.5985 32.207 15.4795 32.2041C15.0599 32.1886 14.6366 32.1996 14.2217 32.1665C12.4059 32.0235 10.9346 31.2494 9.82766 29.8269C9.80705 29.8003 9.78083 29.7765 9.72745 29.7196C9.65909 29.9948 9.59072 30.2286 9.54015 30.4689C9.38247 31.1355 9.386 31.829 9.55045 32.494C9.64452 32.8851 9.82835 33.2501 10.088 33.5612C10.3476 33.8724 10.6762 34.1215 11.0489 34.2897C11.5865 34.5502 12.083 34.8854 12.5229 35.2848C12.8177 35.5279 13.0205 35.8609 13.0989 36.2304C13.1492 36.528 13.1309 36.8329 13.0455 37.1228C12.964 37.4272 12.8685 37.7281 12.7954 38.0344C12.7505 38.2261 12.7383 38.4251 12.7093 38.6204C12.6954 38.7368 12.6745 38.8523 12.6465 38.9662C12.6111 39.0904 12.5443 39.2039 12.4524 39.2963C12.3604 39.3886 12.2462 39.4567 12.1202 39.4945C11.9929 39.5394 11.8646 39.5788 11.7409 39.6293C11.3894 39.7658 11.098 40.019 10.9177 40.3447C10.9037 40.3703 10.8859 40.3923 10.8606 40.429C10.7613 40.3624 10.6847 40.2681 10.6405 40.1585C10.3798 39.6334 10.3258 39.0326 10.4888 38.4709C10.6078 38.0656 10.8513 37.8968 11.2792 37.884C11.3916 37.884 11.504 37.884 11.6164 37.884C11.7288 37.884 11.8411 37.884 11.9526 37.8757C12.3403 37.8445 12.4742 37.7244 12.5079 37.3475C12.5431 37.004 12.5222 36.6573 12.4461 36.3203C12.3966 36.0937 12.2996 35.8796 12.1613 35.6916C12.023 35.5036 11.8464 35.3457 11.6426 35.2279C11.447 35.1209 11.2456 35.0242 11.0395 34.9381C10.7754 34.818 10.4991 34.7189 10.2453 34.5804C9.43526 34.1393 8.96701 33.4533 8.78907 32.5701C8.66358 31.9455 8.70011 31.3145 8.70947 30.6854C8.71977 29.9966 8.73382 29.3097 8.74038 28.6191C8.746 28.0394 8.58304 27.5185 8.14101 27.1076C8.04637 27.0116 7.99191 26.8843 7.98836 26.7509C7.96214 26.4381 8.02395 26.1529 8.26931 25.9254C8.39574 25.8099 8.51562 25.6888 8.63642 25.5687C9.11272 25.0982 9.4636 24.5202 9.65815 23.8857C9.8389 23.3125 10.0271 22.7411 10.2378 22.1771C10.7894 20.6968 11.7147 19.477 12.9453 18.4645C14.2567 17.4038 15.7001 16.5101 17.241 15.8048C17.8413 15.5224 18.451 15.2591 19.056 14.9877C19.0897 14.973 19.1243 14.9629 19.1843 14.9409C19.2345 15.0286 19.2762 15.1207 19.3088 15.216C19.5636 16.2891 20.279 16.9155 21.3251 17.2255C21.4253 17.2557 21.5265 17.2851 21.6229 17.3236C21.708 17.3544 21.7817 17.4095 21.8345 17.4818C21.8872 17.5541 21.9166 17.6402 21.9189 17.729C21.9273 17.8601 21.9282 17.9922 21.9376 18.1234C21.9835 18.7488 22.2869 19.234 22.7851 19.6109C22.9097 19.7027 23.0483 19.7797 23.1747 19.8714C23.4922 20.1025 23.8172 20.33 24.1196 20.5767C24.5046 20.8959 24.705 21.3287 24.8305 21.7983C24.8679 21.9405 24.9016 22.0835 24.9447 22.223C25.0374 22.5425 25.2244 22.828 25.4823 23.0438C25.6347 23.1735 25.7751 23.3162 25.9018 23.4703C26.0371 23.6187 26.1341 23.7968 26.1846 23.9896C26.2352 24.1824 26.2377 24.3842 26.1921 24.5782C26.1898 24.5998 26.1898 24.6216 26.1921 24.6433C26.1938 24.6509 26.1963 24.6583 26.1996 24.6653C26.2783 24.7277 26.3504 24.6928 26.4234 24.6497C26.814 24.4213 27.167 24.4984 27.4948 24.7772C27.742 24.9872 27.9865 25.2128 27.9902 25.5549C28.0027 25.883 28.0438 26.2095 28.1129 26.5307C28.1273 26.6165 28.1156 26.7046 28.0792 26.7839C27.9709 27.0134 27.9455 27.2721 28.0071 27.5176C28.0725 27.8114 28.0971 28.1125 28.0801 28.4127C28.0554 28.7212 27.9475 29.0178 27.7673 29.2721C27.6963 29.3807 27.5979 29.4695 27.4816 29.5301C27.3653 29.5907 27.235 29.6209 27.1034 29.6178C26.6642 29.628 26.2375 29.4746 25.9093 29.1886C25.7239 29.0287 25.5496 28.8568 25.3877 28.6741C25.2969 28.5619 25.1789 28.4738 25.0445 28.4177C24.91 28.3617 24.7633 28.3394 24.6179 28.3531C24.0672 28.3898 23.716 28.1422 23.5784 27.6194C23.4959 27.3085 23.4604 26.9866 23.3967 26.6701C23.3778 26.5548 23.3448 26.4421 23.2983 26.3345C23.2047 26.1437 23.0464 26.0905 22.8516 26.1776C22.771 26.216 22.6945 26.2621 22.6231 26.3152C21.7003 26.9645 20.6186 27.3635 19.4877 27.4717C19.2564 27.4956 19.026 27.5212 18.7937 27.5341C18.3124 27.5607 18.1869 27.4204 18.2459 26.9526C18.289 26.5821 18.3236 26.2061 18.3639 25.8282Z" fill="black"/>
<path d="M19.4998 13.091C19.6928 13.224 19.8641 13.3396 20.0337 13.4579C20.3006 13.6459 20.559 13.8468 20.8344 14.0228C21.0851 14.1867 21.3762 14.2817 21.6772 14.298C21.6135 13.6817 21.4974 13.0837 21.4328 12.4802L21.4862 12.4555C21.5247 12.4895 21.561 12.526 21.5948 12.5646C21.7887 12.8159 21.975 13.0727 22.1764 13.3185C22.2701 13.4326 22.3769 13.5357 22.4948 13.6257C22.5801 13.6987 22.6856 13.7453 22.798 13.7595C22.9104 13.7737 23.0245 13.7549 23.126 13.7055C23.1986 13.672 23.2802 13.6617 23.3592 13.6762C23.4791 13.7071 23.6045 13.711 23.7262 13.6876C23.8478 13.6643 23.9625 13.6143 24.0616 13.5413C24.1852 13.4588 24.3022 13.3671 24.4212 13.2772C25.1001 12.7645 25.8259 12.6957 26.5864 13.08C26.9909 13.2846 27.3805 13.5193 27.7767 13.7413C27.8151 13.7633 27.8497 13.7926 27.889 13.8137C28.0923 13.9247 28.2459 13.8889 28.3573 13.6844C28.4383 13.5278 28.5099 13.3668 28.5718 13.202C28.656 12.9911 28.7338 12.7783 28.8237 12.5408C29.1805 12.737 29.4174 12.9993 29.468 13.3909C29.512 13.7413 29.4249 14.0751 29.3182 14.4044C29.2947 14.4796 29.2685 14.5548 29.2329 14.6603C29.4378 14.6091 29.6137 14.4809 29.7227 14.3035C29.8445 14.1026 29.954 13.8935 30.0552 13.6817C30.2759 13.1937 30.6718 12.8021 31.1677 12.5811C31.2286 12.555 31.2912 12.5329 31.3551 12.5151C31.3896 12.5113 31.4245 12.5113 31.459 12.5151L31.74 13.2919C31.4393 13.5083 31.4141 13.8312 31.4056 14.1577C31.3981 14.4649 31.4009 14.7731 31.312 15.0748C31.2942 15.1307 31.2801 15.1876 31.2595 15.2426C31.0722 15.7517 30.7164 16.0176 30.1629 16.0259C29.9091 16.0305 29.6562 15.9901 29.4024 15.9699L29.1365 15.9461C29.158 16.2442 29.1777 16.5184 29.1983 16.8064L29.5373 16.8816C29.4053 17.2361 29.3507 17.6139 29.3772 17.9904C29.3827 18.1441 29.3987 18.2973 29.4249 18.449C29.4838 18.7971 29.4551 19.1541 29.3416 19.489C29.3013 19.6302 29.262 19.7715 29.2198 19.9118C29.1733 20.0442 29.1615 20.1859 29.1856 20.3238C29.2096 20.4618 29.2688 20.5917 29.3575 20.7014C29.4417 20.8131 29.5133 20.9333 29.571 21.06C29.6144 21.1419 29.6393 21.2319 29.644 21.324C29.6487 21.4161 29.6331 21.5082 29.5982 21.5938C29.5733 21.6507 29.564 21.7129 29.5712 21.7744C29.5784 21.8358 29.6019 21.8943 29.6394 21.9442C29.8407 22.2798 29.7911 22.4027 29.4071 22.5137C28.9935 22.6424 28.5678 22.7302 28.1363 22.776C27.7704 22.8091 27.4013 22.7806 27.0453 22.6916C26.8547 22.6423 26.6595 22.6116 26.4628 22.5999C26.4929 22.6351 26.5258 22.6679 26.5611 22.698C26.8729 22.9237 27.2082 23.1043 27.6025 23.1245C27.8037 23.1314 28.0052 23.1157 28.2028 23.0777C28.5184 23.0218 28.8302 22.9429 29.1393 22.876C29.1975 22.8623 29.2574 22.8567 29.3172 22.8595C29.5326 22.8732 29.6216 22.9952 29.5729 23.2034C29.4922 23.5223 29.3135 23.8092 29.0609 24.0253C28.8084 24.2415 28.4941 24.3766 28.1606 24.4122C27.8133 24.436 27.4685 24.3386 27.1876 24.137C26.941 23.9709 26.704 23.7915 26.4777 23.5996C26.1125 23.285 25.7632 22.953 25.4073 22.6274C25.2492 22.4888 25.1514 22.2962 25.1339 22.0891C25.0599 21.216 24.6019 20.5666 23.9024 20.0594C23.6804 19.898 23.4444 19.755 23.214 19.6009C23.0829 19.5156 22.9471 19.4385 22.8216 19.3459C22.6301 19.2093 22.4726 19.0321 22.3607 18.8276C22.2488 18.6231 22.1855 18.3965 22.1754 18.1646C22.1674 17.9812 22.1693 17.7976 22.1811 17.6144C22.196 17.2603 22.1567 17.2127 21.8065 17.1356C21.4334 17.0563 21.0736 16.9257 20.7379 16.7477C20.0018 16.3496 19.572 15.7388 19.4914 14.9253C19.4343 14.3512 19.4652 13.7697 19.4577 13.191C19.4555 13.1722 19.4583 13.1532 19.4656 13.1357C19.473 13.1182 19.4848 13.1029 19.4998 13.091ZM24.0953 18.2784C24.4118 18.2784 24.7415 17.9684 24.7508 17.6648C24.7602 17.3612 24.4184 17.0228 24.1206 17.0228C23.8078 17.0228 23.4744 17.3566 23.4772 17.6703C23.4836 17.8291 23.5507 17.9797 23.6652 18.0923C23.7797 18.205 23.9332 18.2714 24.0953 18.2784ZM27.7476 17.6657C27.7471 17.8248 27.8106 17.9776 27.9244 18.0911C28.0382 18.2045 28.1931 18.2695 28.3554 18.2719C28.5214 18.2698 28.6798 18.2033 28.796 18.0872C28.9121 17.971 28.9766 17.8145 28.9754 17.652C28.9756 17.573 28.9594 17.4947 28.9278 17.422C28.8962 17.3494 28.8498 17.2837 28.7914 17.2292C28.7331 17.1746 28.664 17.1322 28.5884 17.1046C28.5128 17.077 28.4323 17.0648 28.3517 17.0687C28.2712 17.0658 28.1909 17.0793 28.116 17.1084C28.0411 17.1375 27.9732 17.1815 27.9166 17.2376C27.86 17.2937 27.8159 17.3608 27.7871 17.4345C27.7584 17.5082 27.7456 17.5869 27.7495 17.6657H27.7476Z" fill="black"/>
<path d="M23.1054 37.6519C23.2486 37.5309 23.3863 37.4144 23.5193 37.3025C23.6804 37.1713 23.8396 37.0374 24.0081 36.9164C24.1711 36.803 24.361 36.7322 24.5597 36.7109C24.4914 37.0191 24.4258 37.3126 24.3518 37.6418C24.4549 37.6006 24.5223 37.5749 24.5869 37.5501L26.0797 36.8889C26.1827 36.843 26.2867 36.7972 26.4131 36.9008C26.3288 37.0228 26.2333 37.142 26.1584 37.2676C26.0937 37.3805 25.9392 37.4657 26.001 37.6638C26.1733 37.5923 26.3213 37.5299 26.4693 37.4703C26.6837 37.3841 26.8973 37.2942 27.1155 37.219C27.3418 37.1356 27.5894 37.1247 27.8225 37.1879C27.8904 37.2092 27.9632 37.2103 28.0318 37.1911C28.1003 37.1718 28.1615 37.133 28.2074 37.0796C28.2943 36.9891 28.3756 36.8935 28.4509 36.7935C28.5099 36.7201 28.5624 36.6412 28.6382 36.5376C28.7028 36.688 28.7515 36.8082 28.8059 36.9265C28.8418 37.0147 28.8867 37.0992 28.9398 37.1787C28.9698 37.2259 29.0096 37.2663 29.0568 37.2972C29.1039 37.3282 29.1572 37.349 29.2131 37.3583C29.2691 37.3675 29.3264 37.3651 29.3813 37.351C29.4362 37.337 29.4875 37.3117 29.5316 37.2768C29.6412 37.1898 29.7388 37.0893 29.822 36.9778C29.8892 36.8893 29.9517 36.7975 30.0093 36.7027L30.5084 37.3548C30.5843 37.2832 30.6376 37.1919 30.6622 37.0917C30.6867 36.9914 30.6815 36.8863 30.647 36.7889C30.6096 36.6779 30.5655 36.5688 30.5253 36.4587C30.4951 36.382 30.475 36.3019 30.4653 36.2203C30.9083 36.4303 31.3082 36.7082 31.7699 36.954C31.6687 36.356 31.5742 35.792 31.4814 35.2362C31.5929 35.1848 31.6097 35.2509 31.6341 35.3022C31.7665 35.5823 31.8979 35.8617 32.0284 36.1405C32.0479 36.188 32.071 36.234 32.0977 36.2781C32.1036 36.2967 32.1155 36.3131 32.1316 36.3247C32.1477 36.3363 32.1671 36.3426 32.1871 36.3426C32.2071 36.3426 32.2266 36.3363 32.2426 36.3247C32.2587 36.3131 32.2706 36.2967 32.2765 36.2781C32.3084 36.2294 32.3224 36.1698 32.3505 36.1185C32.4966 35.8553 32.6315 35.5819 32.7972 35.3343C33.0109 35.0185 33.3383 34.7932 33.7141 34.7033C33.7852 34.685 33.8583 34.6749 33.9697 34.6529C33.9276 34.7226 33.9079 34.7639 33.8808 34.7987C33.6898 35.0436 33.5452 35.3201 33.4537 35.615C33.4252 35.7133 33.4119 35.8154 33.4144 35.9176C33.4144 36.0405 33.4715 36.0873 33.6017 36.0928C33.6766 36.0957 33.7515 36.0889 33.8246 36.0726C34.6468 35.8843 35.4694 35.6944 36.2923 35.5031C36.3148 35.4923 36.3361 35.4794 36.3559 35.4646L28.0211 24.8111C28.1672 24.6864 28.6869 24.4773 28.8461 24.4974C28.9415 24.511 29.0314 24.5493 29.1065 24.6084C29.2018 24.6901 29.2869 24.7824 29.3603 24.8836C32.2484 28.5417 35.1354 32.2014 38.0211 35.8626C38.2084 36.0992 38.3816 36.345 38.5698 36.5963C38.4115 36.7142 38.2325 36.8027 38.0417 36.8577C35.455 37.6189 32.8441 38.2912 30.1806 38.7451C29.1196 38.9286 28.0492 39.057 26.9825 39.2037C25.8193 39.3633 24.6543 39.5146 23.4903 39.6705C22.2522 39.8375 21.0151 40.008 19.7761 40.1704C18.671 40.3162 17.5659 40.4611 16.459 40.5932C15.352 40.7252 14.2432 40.8408 13.1344 40.96C12.8375 40.9921 12.5397 41.027 12.2419 41.0582C12.1539 41.0683 12.0649 41.071 11.961 41.0783C11.8373 40.7704 11.7765 40.4416 11.7821 40.1108C11.7829 40.0255 11.8136 39.9431 11.869 39.8773C11.9244 39.8116 12.0011 39.7664 12.0865 39.7494C12.2192 39.7027 12.3452 39.6392 12.4611 39.5605C12.55 39.5073 12.6268 39.4348 12.712 39.3771C12.793 39.3106 12.8916 39.2679 12.9962 39.2537C13.1009 39.2396 13.2076 39.2547 13.3039 39.2973C13.3401 39.3109 13.3769 39.3225 13.4144 39.3321C13.436 39.2294 13.3592 39.2074 13.3105 39.1771C13.1101 39.0487 13.0454 38.8497 13.008 38.636C12.9965 38.5892 13.0037 38.54 13.0281 38.4982C13.0524 38.4565 13.0921 38.4254 13.1391 38.4113C13.2632 38.3567 13.4025 38.3451 13.5343 38.3783C13.7974 38.4361 14.0587 38.5003 14.3219 38.5553C14.4221 38.5764 14.526 38.581 14.6263 38.5929C14.7199 38.4324 14.7152 38.2985 14.6057 38.171L14.2058 37.7051C14.4971 37.7437 14.7697 37.8678 14.9877 38.061C15.1002 38.1682 15.203 38.2848 15.2949 38.4095C15.4944 38.6672 15.6424 38.691 15.8849 38.4673C16.1275 38.2435 16.326 38.0289 16.5451 37.8078C16.6116 37.74 16.6753 37.6703 16.7446 37.5969C17.1913 37.8298 17.0743 38.2389 17.1192 38.6186L17.9134 38.1774L17.9677 38.5443C18.1174 38.5374 18.2636 38.4979 18.3957 38.4287C18.601 38.3216 18.8275 38.259 19.0598 38.2454C19.292 38.2318 19.5245 38.2674 19.7414 38.3499C20.214 38.5145 20.7329 38.4962 21.1921 38.2985C21.495 38.1583 21.7737 37.9726 22.0181 37.7482C22.1343 37.6241 22.2062 37.4664 22.2232 37.2988C22.2934 36.8403 22.565 36.4982 22.86 36.1148C22.8692 36.1725 22.8746 36.2307 22.8759 36.2891C22.8637 36.4862 22.8459 36.6834 22.8338 36.8806C22.8029 37.2209 22.8806 37.4364 23.1054 37.6519Z" fill="black"/>
<path d="M8.94919 9.22346C9.20392 9.22346 9.44272 9.21612 9.6806 9.22346C9.85104 9.2308 9.93439 9.30692 9.96155 9.48393C9.99526 9.70037 10.0131 9.91957 10.0337 10.1388C10.1151 11.0284 10.1919 11.9189 10.2753 12.8095C10.3689 13.8522 10.4738 14.895 10.5712 15.9378C10.6536 16.8281 10.7345 17.7183 10.8138 18.6085C10.8465 18.9754 10.8728 19.3422 10.9074 19.7036C10.9411 20.0338 10.8791 20.3666 10.7285 20.6638C10.5778 20.9665 10.412 21.2618 10.2481 21.558C10.2266 21.5956 10.1741 21.6167 10.1367 21.6452C10.1095 21.5984 10.0636 21.5534 10.0589 21.5048C10.0215 21.1627 9.99339 20.8188 9.96529 20.4767C9.86228 19.3682 9.75989 18.2591 9.65812 17.1494C9.56447 16.0919 9.47082 15.0335 9.37061 13.9761C9.27041 12.9186 9.17395 11.8749 9.07561 10.8239C9.02754 10.3237 8.98134 9.82113 8.93701 9.31609C8.93813 9.28491 8.94221 9.2539 8.94919 9.22346Z" fill="black"/>
<path d="M19.1646 13.4909L14.9401 8.10548L15.679 7.46349C15.8157 7.5552 19.7471 12.5573 19.956 12.9003C19.896 12.8902 19.8502 12.8838 19.8043 12.8746C19.5027 12.8141 19.336 12.9085 19.2424 13.1983C19.2143 13.2836 19.1983 13.368 19.1646 13.4909Z" fill="black"/>
<path d="M11.5518 37.5767C11.4863 36.8595 11.4216 36.1561 11.3561 35.4453C11.3834 35.4469 11.4105 35.4519 11.4366 35.46C12.036 35.7626 12.4527 36.6523 12.2945 37.2943C12.2811 37.3513 12.2619 37.4069 12.2373 37.4603C12.2162 37.5205 12.1745 37.5717 12.1191 37.6052C12.0638 37.6386 11.9983 37.6522 11.9339 37.6437C11.8093 37.6309 11.6867 37.6006 11.5518 37.5767Z" fill="black"/>
<path d="M17.9097 32.7774C18.5006 32.4885 18.9951 32.7774 18.9642 33.3854C18.8955 33.4284 18.8138 33.4466 18.7329 33.4369C18.6521 33.4272 18.5772 33.3902 18.5212 33.3322C18.3227 33.146 18.1185 32.9663 17.9097 32.7774Z" fill="black"/>
<path d="M11.961 1.82858L9.35471 2.56229C9.3489 2.564 9.34272 2.56405 9.33689 2.56243C9.33106 2.56082 9.32582 2.5576 9.32179 2.55317C9.31776 2.54874 9.3151 2.54328 9.31413 2.53742C9.31316 2.53156 9.31392 2.52556 9.31631 2.52011C9.69091 1.69468 10.9168 1.29114 11.9657 1.76805C11.9725 1.77018 11.9784 1.7745 11.9824 1.78032C11.9865 1.78615 11.9884 1.79313 11.9878 1.80013C11.9873 1.80714 11.9843 1.81376 11.9795 1.81893C11.9746 1.82409 11.9681 1.8275 11.961 1.82858Z" fill="black"/>
<path d="M11.0001 31.4356C11.0432 31.442 11.0732 31.4447 11.1022 31.4512C11.7727 31.5842 12.0181 31.8226 12.094 32.4811C12.1754 33.1937 12.2288 33.9082 12.2934 34.6226C12.2934 34.6511 12.2934 34.6795 12.2934 34.7308C12.2435 34.7137 12.195 34.6928 12.1483 34.6685C11.9198 34.5291 11.6959 34.3833 11.4656 34.2466C11.3876 34.2041 11.3224 34.1423 11.2762 34.0676C11.2301 33.9928 11.2046 33.9075 11.2024 33.8201C11.1443 33.0938 11.0694 32.3601 11.0011 31.6355C10.9954 31.5713 11.0001 31.5071 11.0001 31.4356Z" fill="black"/>
<path d="M161.626 12.0511C161.623 11.4394 161.751 10.8337 162.002 10.2731C162.484 9.1798 163.377 8.3083 164.498 7.8379C165.074 7.59863 165.694 7.4753 166.32 7.4753C166.946 7.4753 167.566 7.59863 168.142 7.8379C169.262 8.3083 170.156 9.1798 170.638 10.2731C170.883 10.8352 171.009 11.4398 171.009 12.0507C171.009 12.6616 170.883 13.2662 170.638 13.8282C170.156 14.9216 169.262 15.7931 168.142 16.2635C167.566 16.5027 166.946 16.6261 166.32 16.6261C165.694 16.6261 165.074 16.5027 164.498 16.2635C163.377 15.7931 162.484 14.9216 162.002 13.8282C161.751 13.268 161.623 12.6626 161.626 12.0511ZM162.457 12.0511C162.453 12.5536 162.554 13.0516 162.755 13.5143C163.143 14.4198 163.881 15.1398 164.809 15.519C165.284 15.7141 165.794 15.8146 166.31 15.8146C166.825 15.8146 167.335 15.7141 167.81 15.519C168.738 15.1398 169.476 14.4198 169.864 13.5143C170.064 13.051 170.167 12.5534 170.167 12.0507C170.167 11.548 170.064 11.0504 169.864 10.5871C169.476 9.6816 168.738 8.96155 167.81 8.58233C167.335 8.38726 166.825 8.28678 166.31 8.28678C165.794 8.28678 165.284 8.38726 164.809 8.58233C163.881 8.96155 163.143 9.6816 162.755 10.5871C162.552 11.0498 162.45 11.5481 162.453 12.0511H162.457ZM164.512 9.40662H166.582C167.229 9.40662 167.706 9.54186 168.013 9.81234C168.32 10.0828 168.473 10.4723 168.473 10.9809C168.473 11.4398 168.352 11.784 168.111 12.0135C167.864 12.2465 167.542 12.39 167.2 12.4201L168.586 14.6342H167.551L166.214 12.4936H165.495V14.6342H164.512V9.40662ZM165.495 11.6821H166.214C166.365 11.6821 166.517 11.6757 166.669 11.6629C166.809 11.6535 166.947 11.6225 167.078 11.5711C167.195 11.5251 167.298 11.4486 167.374 11.3499C167.449 11.2268 167.488 11.0866 167.488 10.9437C167.488 10.8008 167.449 10.6605 167.374 10.5375C167.298 10.4387 167.195 10.3622 167.078 10.3163C166.947 10.2655 166.809 10.2363 166.669 10.23C166.517 10.2227 166.366 10.2181 166.214 10.2181H165.495V11.6821Z" fill="black"/>
<path d="M145.491 17.7643C145.897 19.1246 146.303 20.4825 146.707 21.838C147.112 23.1837 147.508 24.5321 147.95 25.8768C148.277 24.9828 148.541 24.0786 148.82 23.18C149.1 22.2813 149.374 21.3836 149.65 20.4859C149.927 19.5882 150.208 18.6776 150.488 17.7689H153.671C154.51 20.4688 155.35 23.1684 156.189 25.8676C156.306 25.8328 156.304 25.752 156.323 25.6841C156.547 24.9546 156.771 24.2246 156.993 23.4939C157.553 21.6617 158.112 19.829 158.67 17.9956C158.693 17.9194 158.721 17.8441 158.748 17.7634H161.826C161.797 17.8496 161.773 17.9249 161.748 17.9983L159.23 25.126L157.938 28.7829C157.923 28.8252 157.91 28.8665 157.894 28.9078C157.789 29.1832 157.693 29.252 157.392 29.252H155.09C154.808 29.252 154.731 29.1997 154.637 28.9206C154.308 27.9311 153.979 26.9407 153.653 25.9512C153.172 24.5015 152.689 23.0524 152.204 21.6039C152.17 21.4888 152.114 21.3809 152.039 21.2854C151.99 21.413 151.937 21.5387 151.895 21.6682C151.112 24.0395 150.331 26.4107 149.551 28.782C149.537 28.8243 149.525 28.8665 149.509 28.9078C149.408 29.1749 149.298 29.2548 149.006 29.2538C148.396 29.2538 147.783 29.2474 147.178 29.2447C147.042 29.2447 146.907 29.2447 146.771 29.2447C146.47 29.2392 146.355 29.1575 146.256 28.883C145.44 26.6078 144.625 24.3326 143.81 22.0574C143.332 20.7227 142.855 19.3875 142.379 18.0516C142.348 17.9644 142.33 17.868 142.302 17.7652L145.491 17.7643Z" fill="black"/>
<path d="M128.428 23.4278C128.551 21.346 129.383 19.624 131.164 18.4004C131.889 17.902 132.719 17.6367 133.59 17.5072C134.657 17.3484 135.723 17.354 136.769 17.6293C139.027 18.2232 140.507 19.5928 141.112 21.8114C141.238 22.2868 141.324 22.7716 141.369 23.2608C141.414 23.855 141.344 24.4522 141.163 25.0213C140.444 27.4676 138.771 28.9261 136.244 29.4576C134.868 29.7458 133.515 29.5889 132.223 29.0574C130.494 28.3488 129.378 27.0885 128.777 25.3747C128.554 24.7483 128.437 24.0909 128.428 23.4278ZM134.866 27.1913C135.045 27.1784 135.196 27.1784 135.344 27.1546C136.684 26.9398 137.573 26.188 138.031 24.958C138.391 24.0068 138.402 22.9632 138.062 22.005C137.83 21.3267 137.442 20.7558 136.839 20.339C136.299 19.9704 135.659 19.7686 135 19.7598C133.88 19.7295 132.952 20.127 132.292 21.022C131.8 21.6952 131.522 22.4949 131.492 23.3213C131.461 24.148 131.689 24.9643 132.146 25.6611C132.769 26.6626 133.705 27.1417 134.866 27.1913Z" fill="black"/>
<path d="M124.482 24.9864L126.935 26.6635C126.877 26.7406 126.831 26.8048 126.782 26.8672C125.826 28.0651 124.578 28.8444 123.101 29.2878C121.932 29.6327 120.706 29.7573 119.489 29.655C118.433 29.5751 117.397 29.3979 116.418 29.0005C113.631 27.8687 111.87 25.8511 111.177 23.0028C110.653 20.8512 110.844 18.7262 111.818 16.7114C112.853 14.569 114.58 13.1637 116.863 12.3972C118.148 11.9681 119.507 11.79 120.862 11.8731C122.174 11.9312 123.458 12.2571 124.632 12.8295C125.356 13.1894 126.007 13.6428 126.522 14.2652C126.573 14.3267 126.616 14.3918 126.679 14.4726L124.399 16.2313C124.345 16.1937 124.296 16.1634 124.252 16.1276C124.171 16.0606 124.092 15.9927 124.016 15.9229C122.927 14.9242 121.606 14.5102 120.143 14.5157C119.072 14.5157 118.093 14.871 117.183 15.4061C115.805 16.2157 114.981 17.4136 114.599 18.9181C114.382 19.7437 114.305 20.5988 114.373 21.4488C114.509 22.9744 115.084 24.3191 116.182 25.4279C117.002 26.2541 118.025 26.7011 119.181 26.8691C119.978 26.9959 120.792 26.9763 121.581 26.8112C122.602 26.5863 123.524 26.052 124.215 25.2848C124.298 25.1893 124.382 25.0966 124.482 24.9864Z" fill="black"/>
<path d="M102.846 20.0701H100.87C100.815 19.8865 100.797 18.2627 100.84 17.7633C101.056 17.7477 101.279 17.7588 101.499 17.756C101.718 17.7532 101.935 17.756 102.157 17.756H102.848V14.4928C103.03 14.4414 105.522 14.4331 105.78 14.4809V17.734L106.51 17.7395H108.686V20.0407H105.826C105.807 20.1371 105.794 20.2346 105.787 20.3326C105.799 22.158 105.813 23.9835 105.83 25.8089C105.831 25.9115 105.841 26.0138 105.861 26.1146C105.987 26.7571 106.379 27.0912 107.055 27.1325C107.438 27.1429 107.822 27.1075 108.196 27.027L108.56 26.9636C108.572 26.9905 108.581 27.0185 108.588 27.0472C108.618 27.6695 108.648 28.2919 108.674 28.9142C108.683 29.1244 108.637 29.1896 108.427 29.2447C107.298 29.543 106.177 29.6182 105.051 29.2492C103.848 28.8545 103.157 28.0312 102.996 26.8168C102.928 26.1899 102.897 25.5598 102.902 24.9295C102.878 23.3608 102.871 21.7921 102.857 20.2234C102.854 20.1784 102.85 20.1371 102.846 20.0701Z" fill="black"/>
<path d="M91.6671 17.7689H94.4519V19.4441L94.4961 19.4679C94.5478 19.4138 94.6015 19.3605 94.6504 19.3045C94.8997 19.0209 95.1405 18.729 95.3974 18.4518C96.0428 17.7514 96.8622 17.4237 97.82 17.41C97.9854 17.4061 98.1509 17.411 98.3158 17.4246C98.5641 17.4476 98.6601 17.5541 98.661 17.7918C98.661 18.4885 98.661 19.1852 98.661 19.8819C98.661 19.925 98.6535 19.9682 98.6479 20.0389C98.5651 20.0389 98.4851 20.0389 98.4052 20.0389C98.0523 20.0389 97.6977 20.0178 97.3458 20.0389C95.9609 20.1417 94.926 21.0541 94.6861 22.3878C94.6256 22.7345 94.5942 23.0854 94.592 23.437C94.5817 25.2728 94.5855 27.1087 94.5845 28.9372V29.2125H91.6831C91.6351 29.0556 91.6181 18.0947 91.6671 17.7689Z" fill="black"/>
<path d="M84.5405 22.0142C84.6468 21.6938 84.6345 21.3472 84.5057 21.0348C84.3654 20.6504 84.0861 20.3292 83.7202 20.1316C82.7238 19.5689 81.6814 19.5092 80.6155 19.8957C80.2403 20.0456 79.8749 20.2179 79.5213 20.4115C79.2889 20.5299 79.0688 20.6722 78.8421 20.8026C78.779 20.8393 78.7132 20.8723 78.636 20.9127L77.1307 19.1916C77.1411 19.1641 77.1411 19.154 77.1467 19.1503C78.0076 18.5996 78.8599 18.0369 79.8591 17.7349C81.3901 17.2566 83.0371 17.2646 84.5631 17.7578C85.5801 18.0819 86.3817 18.6868 86.8935 19.6221C87.1881 20.1783 87.349 20.7926 87.3639 21.4185C87.4458 23.3535 87.4194 25.2893 87.4015 27.2252C87.3959 27.7962 87.3896 28.3677 87.3827 28.9399V29.174C87.2115 29.2245 84.9714 29.2373 84.6741 29.1905V27.8889L84.6318 27.8669C84.5754 27.9192 84.518 27.9715 84.4625 28.0247C83.7196 28.7545 82.769 29.2496 81.7341 29.4457C80.4577 29.7022 79.1292 29.4581 78.0358 28.7664C77.1204 28.2001 76.6481 27.3446 76.5305 26.3036C76.4345 25.5686 76.6078 24.8241 77.0197 24.2016C77.3018 23.7744 77.6902 23.4239 78.1487 23.1827C78.9315 22.7725 79.7763 22.4866 80.6512 22.3355C81.5779 22.1648 82.5178 22.1244 83.4558 22.0739L84.5405 22.0142ZM84.5697 24.041H83.5292C82.7991 24.041 82.07 24.0547 81.355 24.2246C80.8772 24.3281 80.4279 24.531 80.0378 24.8194C79.5815 25.1728 79.3793 25.6317 79.5176 26.1962C79.5674 26.4012 79.6697 26.5904 79.815 26.7461C79.9603 26.9019 80.1438 27.019 80.3483 27.0866C80.9311 27.3146 81.5648 27.3899 82.1866 27.3051C83.2629 27.1518 84.0259 26.5882 84.4371 25.5987C84.6403 25.1094 84.6676 24.5945 84.5735 24.041H84.5697Z" fill="black"/>
<path d="M58.6955 29.2116H55.7649V17.7734H58.513V19.3339L58.5572 19.3532C58.609 19.288 58.6607 19.2228 58.7115 19.1567C59.2083 18.5096 59.8123 17.9901 60.5931 17.6991C61.5773 17.3257 62.663 17.2933 63.6686 17.6073C64.5709 17.8827 65.2313 18.4619 65.7384 19.2274C65.7949 19.3119 65.8485 19.3982 65.9181 19.5028C65.9812 19.4248 66.031 19.3642 66.0799 19.3027C66.8157 18.3683 67.7555 17.7358 68.9419 17.4669C70.5751 17.0997 72.3288 17.7184 73.2743 18.9943C73.6853 19.5593 73.9506 20.2126 74.0477 20.899C74.11 21.2825 74.1433 21.67 74.1474 22.0583C74.1587 24.3613 74.1559 26.6644 74.1577 28.9684C74.1577 29.04 74.1512 29.1116 74.1474 29.1969H71.198C71.198 29.1134 71.1895 29.0289 71.1895 28.9436C71.1895 27.44 71.197 25.9365 71.1895 24.4329C71.1895 23.7583 71.1773 23.0836 71.1519 22.4135C71.1405 21.9879 71.067 21.566 70.9336 21.1606C70.657 20.3344 70.0511 19.8892 69.1677 19.8213C68.3351 19.7571 67.668 20.0508 67.1431 20.6713C66.6915 21.21 66.4357 21.8795 66.4158 22.5751C66.3895 23.1093 66.3942 23.6454 66.3923 24.1814C66.3923 25.215 66.3923 26.2492 66.3923 27.284C66.3923 27.8412 66.3979 28.3983 66.4008 28.9564C66.4008 29.0354 66.4008 29.1152 66.4008 29.1896C66.2248 29.2437 63.6724 29.2538 63.4203 29.2006V28.9473C63.4203 26.9517 63.4203 24.9565 63.4203 22.9615C63.428 22.6391 63.4183 22.3164 63.3911 21.9949C63.3602 21.6964 63.299 21.4015 63.2086 21.1147C62.9499 20.3234 62.3703 19.9094 61.5292 19.8296C60.5047 19.7323 59.7295 20.1215 59.1932 20.9724C58.8772 21.4756 58.7068 22.0529 58.7002 22.643C58.6861 23.2855 58.6936 23.9198 58.6936 24.5578C58.6936 26.0173 58.6936 27.4771 58.6936 28.9372L58.6955 29.2116Z" fill="black"/>
<path d="M50.8547 15.8642C50.808 15.7974 50.7578 15.7331 50.7042 15.6714C49.919 14.8828 48.8509 14.4221 47.7247 14.3863C46.9589 14.354 46.2021 14.5569 45.5608 14.9664C44.5353 15.5998 44.4666 16.7105 44.7282 17.42C44.815 17.6517 44.9488 17.864 45.1216 18.0441C45.2944 18.2242 45.5027 18.3685 45.7339 18.4683C46.0453 18.6133 46.3652 18.7437 46.6888 18.8621C47.7519 19.2485 48.8198 19.6212 49.8819 20.0095C50.594 20.2548 51.2408 20.6525 51.7749 21.1734C52.5026 21.8991 52.941 22.8545 53.0111 23.8675C53.0954 24.8522 52.9001 25.8405 52.4466 26.724C51.8718 27.877 50.9338 28.6352 49.7342 29.118C48.8695 29.4636 47.9467 29.6503 47.0125 29.6687C45.8746 29.7095 44.7384 29.55 43.6585 29.1978C42.6994 28.8844 41.8239 28.3664 41.0957 27.6814C40.9565 27.5493 40.8135 27.4198 40.6526 27.2693L42.8861 25.2269C42.9369 25.2829 42.9802 25.3242 43.014 25.3674C43.8354 26.3367 44.9069 26.859 46.1648 27.0481C46.9649 27.1835 47.7884 27.0574 48.5074 26.6892C49.1434 26.3624 49.5903 25.8869 49.7756 25.1957C50.0268 24.264 49.6816 23.3856 48.848 22.8706C48.1894 22.4622 47.4669 22.1932 46.7349 21.9435C46.003 21.6939 45.2569 21.4479 44.524 21.1844C44.0162 21.0013 43.5402 20.7431 43.1128 20.4189C42.3297 19.8438 41.7842 19.0135 41.5755 18.0791C41.3918 17.297 41.3867 16.485 41.5605 15.7008C41.822 14.5203 42.5013 13.618 43.5522 12.9902C44.4243 12.4792 45.3845 12.1277 46.3859 11.9529C48.5601 11.5545 50.5302 12.0732 52.3497 13.238C52.508 13.3499 52.6603 13.4697 52.806 13.5969C52.837 13.6258 52.8662 13.6564 52.8935 13.6887L50.8547 15.8642Z" fill="black"/>
</g>
<defs>
<clipPath id="clip0_4322_69522">
<rect width="171" height="40" fill="white" transform="translate(0 1.08571)"/>
</clipPath>
</defs>
</svg>
